<svg width="438" height="94" viewBox="0 0 438 94" fill="none" xmlns="http://www.w3.org/2000/svg">
<path d="M428 4.5C428 2.01472 430.015 0 432.5 0H433.5C435.985 0 438 2.01472 438 4.5C438 6.98528 435.985 9 433.5 9H428V4.5Z" fill="#EF8F00"/>
<path d="M428 89.5C428 91.9853 430.015 94 432.5 94H433.5C435.985 94 438 91.9853 438 89.5C438 87.0147 435.985 85 433.5 85H428V89.5Z" fill="#0CCE84"/>
<path d="M10 89.5C10 91.9853 7.98528 94 5.5 94H4.5C2.01472 94 0 91.9853 0 89.5C0 87.0147 2.01472 85 4.5 85H10V89.5Z" fill="#FF7667"/>
<path d="M10.0572 4.49963C10.0252 2.01455 7.98472 0.025949 5.49964 0.0579588C3.01457 0.0899685 1.02596 2.13047 1.05797 4.61554C1.08998 7.10062 3.13048 9.08922 5.61556 9.05721L10.1152 8.99925L10.0572 4.49963Z" fill="#AE8FF9"/>
</svg>
